<?xml version="1.0" encoding="UTF-8" standalone="no"?>
<!DOCTYPE svg PUBLIC "-//W3C//DTD SVG 1.1//EN"
 "http://www.w3.org/Graphics/SVG/1.1/DTD/svg11.dtd">
<!-- Generated by graphviz version 2.47.3 (20210619.2315)
 -->
<!-- Title: snakemake_dag Pages: 1 -->
<svg width="288pt" height="337pt"
 viewBox="0.00 0.00 288.00 337.00" xmlns="http://www.w3.org/2000/svg" xmlns:xlink="http://www.w3.org/1999/xlink">
<g id="graph0" class="graph" transform="scale(1 1) rotate(0) translate(4 333)">
<title>snakemake_dag</title>
<polygon fill="white" stroke="transparent" points="-4,4 -4,-333 284,-333 284,4 -4,4"/>
<!-- 0 -->
<g id="node1" class="node">
<title>0</title>
<path fill="none" stroke="#d8a456" stroke-width="2" d="M168,-36C168,-36 138,-36 138,-36 132,-36 126,-30 126,-24 126,-24 126,-12 126,-12 126,-6 132,0 138,0 138,0 168,0 168,0 174,0 180,-6 180,-12 180,-12 180,-24 180,-24 180,-30 174,-36 168,-36"/>
<text text-anchor="middle" x="153" y="-15.5" font-family="sans" font-size="10.00">all</text>
</g>
<!-- 1 -->
<g id="node2" class="node">
<title>1</title>
<path fill="none" stroke="#56d8c9" stroke-width="2" stroke-dasharray="5,2" d="M134.5,-108C134.5,-108 33.5,-108 33.5,-108 27.5,-108 21.5,-102 21.5,-96 21.5,-96 21.5,-84 21.5,-84 21.5,-78 27.5,-72 33.5,-72 33.5,-72 134.5,-72 134.5,-72 140.5,-72 146.5,-78 146.5,-84 146.5,-84 146.5,-96 146.5,-96 146.5,-102 140.5,-108 134.5,-108"/>
<text text-anchor="middle" x="84" y="-87.5" font-family="sans" font-size="10.00">mutect2_somatic_pon</text>
</g>
<!-- 1&#45;&gt;0 -->
<g id="edge1" class="edge">
<title>1&#45;&gt;0</title>
<path fill="none" stroke="grey" stroke-width="2" d="M101.06,-71.7C109.5,-63.14 119.82,-52.66 129.04,-43.3"/>
<polygon fill="grey" stroke="grey" stroke-width="2" points="131.61,-45.68 136.14,-36.1 126.63,-40.77 131.61,-45.68"/>
</g>
<!-- 2 -->
<g id="node3" class="node">
<title>2</title>
<path fill="none" stroke="#56d87b" stroke-width="2" stroke-dasharray="5,2" d="M152,-180C152,-180 12,-180 12,-180 6,-180 0,-174 0,-168 0,-168 0,-156 0,-156 0,-150 6,-144 12,-144 12,-144 152,-144 152,-144 158,-144 164,-150 164,-156 164,-156 164,-168 164,-168 164,-174 158,-180 152,-180"/>
<text text-anchor="middle" x="82" y="-159.5" font-family="sans" font-size="10.00">mutect2_genomics_db_import</text>
</g>
<!-- 2&#45;&gt;1 -->
<g id="edge3" class="edge">
<title>2&#45;&gt;1</title>
<path fill="none" stroke="grey" stroke-width="2" d="M82.49,-143.7C82.71,-135.98 82.98,-126.71 83.23,-118.11"/>
<polygon fill="grey" stroke="grey" stroke-width="2" points="86.72,-118.2 83.51,-108.1 79.73,-118 86.72,-118.2"/>
</g>
<!-- 3 -->
<g id="node4" class="node">
<title>3</title>
<path fill="none" stroke="#56a2d8" stroke-width="2" stroke-dasharray="5,2" d="M113,-252C113,-252 51,-252 51,-252 45,-252 39,-246 39,-240 39,-240 39,-228 39,-228 39,-222 45,-216 51,-216 51,-216 113,-216 113,-216 119,-216 125,-222 125,-228 125,-228 125,-240 125,-240 125,-246 119,-252 113,-252"/>
<text text-anchor="middle" x="82" y="-231.5" font-family="sans" font-size="10.00">merge_vcfs_N</text>
</g>
<!-- 3&#45;&gt;2 -->
<g id="edge4" class="edge">
<title>3&#45;&gt;2</title>
<path fill="none" stroke="grey" stroke-width="2" d="M82,-215.7C82,-207.98 82,-198.71 82,-190.11"/>
<polygon fill="grey" stroke="grey" stroke-width="2" points="85.5,-190.1 82,-180.1 78.5,-190.1 85.5,-190.1"/>
</g>
<!-- 4 -->
<g id="node5" class="node">
<title>4</title>
<path fill="none" stroke="#78d856" stroke-width="2" stroke-dasharray="5,2" d="M121.5,-329C121.5,-329 42.5,-329 42.5,-329 36.5,-329 30.5,-323 30.5,-317 30.5,-317 30.5,-300 30.5,-300 30.5,-294 36.5,-288 42.5,-288 42.5,-288 121.5,-288 121.5,-288 127.5,-288 133.5,-294 133.5,-300 133.5,-300 133.5,-317 133.5,-317 133.5,-323 127.5,-329 121.5,-329"/>
<text text-anchor="middle" x="82" y="-317" font-family="sans" font-size="10.00">mutect2_normal</text>
<text text-anchor="middle" x="82" y="-306" font-family="sans" font-size="10.00">locus: chr1</text>
<text text-anchor="middle" x="82" y="-295" font-family="sans" font-size="10.00">sample: NA12878</text>
</g>
<!-- 4&#45;&gt;3 -->
<g id="edge5" class="edge">
<title>4&#45;&gt;3</title>
<path fill="none" stroke="grey" stroke-width="2" d="M82,-287.69C82,-279.91 82,-270.84 82,-262.45"/>
<polygon fill="grey" stroke="grey" stroke-width="2" points="85.5,-262.32 82,-252.32 78.5,-262.32 85.5,-262.32"/>
</g>
<!-- 5 -->
<g id="node6" class="node">
<title>5</title>
<path fill="none" stroke="#d85656" stroke-width="2" d="M268,-108C268,-108 178,-108 178,-108 172,-108 166,-102 166,-96 166,-96 166,-84 166,-84 166,-78 172,-72 178,-72 178,-72 268,-72 268,-72 274,-72 280,-78 280,-84 280,-84 280,-96 280,-96 280,-102 274,-108 268,-108"/>
<text text-anchor="middle" x="223" y="-87.5" font-family="sans" font-size="10.00">cnvkit_somatic_pon</text>
</g>
<!-- 5&#45;&gt;0 -->
<g id="edge2" class="edge">
<title>5&#45;&gt;0</title>
<path fill="none" stroke="grey" stroke-width="2" d="M205.7,-71.7C197.14,-63.14 186.66,-52.66 177.3,-43.3"/>
<polygon fill="grey" stroke="grey" stroke-width="2" points="179.65,-40.7 170.1,-36.1 174.7,-45.65 179.65,-40.7"/>
</g>
<!-- 6 -->
<g id="node7" class="node">
<title>6</title>
<path fill="none" stroke="#c6d856" stroke-width="2" stroke-dasharray="5,2" d="M255.5,-180C255.5,-180 194.5,-180 194.5,-180 188.5,-180 182.5,-174 182.5,-168 182.5,-168 182.5,-156 182.5,-156 182.5,-150 188.5,-144 194.5,-144 194.5,-144 255.5,-144 255.5,-144 261.5,-144 267.5,-150 267.5,-156 267.5,-156 267.5,-168 267.5,-168 267.5,-174 261.5,-180 255.5,-180"/>
<text text-anchor="middle" x="225" y="-159.5" font-family="sans" font-size="10.00">cnvkit_access</text>
</g>
<!-- 6&#45;&gt;5 -->
<g id="edge6" class="edge">
<title>6&#45;&gt;5</title>
<path fill="none" stroke="grey" stroke-width="2" d="M224.51,-143.7C224.29,-135.98 224.02,-126.71 223.77,-118.11"/>
<polygon fill="grey" stroke="grey" stroke-width="2" points="227.27,-118 223.49,-108.1 220.28,-118.2 227.27,-118"/>
</g>
</g>
</svg>
